<svg preserveAspectRatio="none" overflow="visible" style="display: block;" width="24" height="24" viewBox="0 0 24 24" fill="none" xmlns="http://www.w3.org/2000/svg">
<g id="face_3">
<g id="Vector">
<path fill-rule="evenodd" clip-rule="evenodd" d="M11.9998 17.4834C8.40992 17.4834 5.49978 14.5732 5.49978 10.9834C5.49978 7.39351 8.40992 4.48336 11.9998 4.48336C15.5896 4.48336 18.4998 7.39351 18.4998 10.9834C18.4998 14.5732 15.5896 17.4834 11.9998 17.4834ZM3.99978 10.9834C3.99978 15.4016 7.5815 18.9834 11.9998 18.9834C16.4181 18.9834 19.9998 15.4016 19.9998 10.9834C19.9998 6.56508 16.4181 2.98336 11.9998 2.98336C7.5815 2.98336 3.99978 6.56508 3.99978 10.9834Z" fill="#1D1D1D"/>
<path d="M9.49976 10.9834C9.30198 10.9834 9.10865 11.042 8.9442 11.1519C8.77975 11.2618 8.65158 11.418 8.5759 11.6007C8.50021 11.7834 8.48041 11.9845 8.51899 12.1785C8.55757 12.3724 8.65281 12.5506 8.79266 12.6905C8.93251 12.8303 9.11069 12.9256 9.30467 12.9641C9.49865 13.0027 9.69971 12.9829 9.88244 12.9072C10.0652 12.8316 10.2213 12.7034 10.3312 12.5389C10.4411 12.3745 10.4997 12.1812 10.4997 11.9834C10.5008 11.8518 10.4757 11.7212 10.4258 11.5994C10.3759 11.4776 10.3023 11.367 10.2092 11.2739C10.1162 11.1808 10.0055 11.1072 9.88369 11.0573C9.76189 11.0075 9.63138 10.9823 9.49976 10.9834Z" fill="#1D1D1D"/>
<path d="M14.4998 10.9834C14.302 10.9834 14.1086 11.042 13.9442 11.1519C13.7798 11.2618 13.6516 11.418 13.5759 11.6007C13.5002 11.7834 13.4804 11.9845 13.519 12.1785C13.5576 12.3724 13.6528 12.5506 13.7927 12.6905C13.9325 12.8303 14.1107 12.9256 14.3047 12.9641C14.4986 13.0027 14.6997 12.9829 14.8824 12.9072C15.0652 12.8316 15.2213 12.7034 15.3312 12.5389C15.4411 12.3745 15.4997 12.1812 15.4997 11.9834C15.5008 11.8518 15.4757 11.7212 15.4258 11.5994C15.3759 11.4776 15.3023 11.367 15.2092 11.2739C15.1162 11.1808 15.0055 11.1072 14.8837 11.0573C14.7619 11.0075 14.6314 10.9823 14.4998 10.9834Z" fill="#1D1D1D"/>
<path fill-rule="evenodd" clip-rule="evenodd" d="M12.7775 3.88426C12.7592 4.04117 12.7498 4.20126 12.7498 4.36401C12.7498 6.53681 14.4161 8.23335 16.3935 8.23335C17.0837 8.23335 17.729 8.03018 18.2808 7.67441L19.0936 8.93512C18.3101 9.44021 17.3845 9.73335 16.3935 9.73335C13.5178 9.73335 11.2498 7.29359 11.2498 4.36401C11.2498 4.14327 11.2626 3.92533 11.2875 3.711L12.7775 3.88426Z" fill="#1D1D1D"/>
<path fill-rule="evenodd" clip-rule="evenodd" d="M11.1824 3.6188C11.2265 3.85936 11.2498 4.10844 11.2498 4.36401C11.2498 6.53681 9.58346 8.23336 7.606 8.23336C6.91715 8.23336 6.2731 8.03098 5.722 7.67651L4.91056 8.93809C5.69304 9.44137 6.61701 9.73336 7.606 9.73336C10.4818 9.73336 12.7498 7.29359 12.7498 4.36401C12.7498 4.01727 12.7182 3.67753 12.6577 3.34792L11.1824 3.6188Z" fill="#1D1D1D"/>
<path fill-rule="evenodd" clip-rule="evenodd" d="M19.884 9.63668L21.2436 20.1538C21.2712 20.3677 21.2055 20.5831 21.0631 20.7451C20.9207 20.9071 20.7154 20.9999 20.4998 20.9999L3.49978 20.9999C3.28419 20.9999 3.07902 20.9071 2.93663 20.7453C2.79424 20.5834 2.7284 20.3681 2.7559 20.1542L4.10564 9.66053L5.59338 9.85189L4.35242 19.4999L19.6466 19.4999L18.3964 9.829L19.884 9.63668Z" fill="#1D1D1D"/>
</g>
</g>
</svg>
