<svg preserveAspectRatio="none" overflow="visible" style="display: block;" width="56" height="56" viewBox="0 0 56 56" fill="none" xmlns="http://www.w3.org/2000/svg">
<g id="Leading icon">
<g id="State" filter="url(#filter0_dd_0_1162)">
<circle cx="28" cy="24" r="20" fill="white"/>
</g>
<g id="arrow_back">
<path id="Vector" d="M25.9709 17.0286C26.2629 16.7366 26.7364 16.7369 27.0285 17.0286C27.3204 17.3205 27.3211 17.794 27.0295 18.0862L21.8723 23.2502H36.2502L36.3264 23.2542C36.7047 23.2924 37.0002 23.6118 37.0002 24.0002C37 24.4143 36.6642 24.7502 36.2502 24.7502H21.8723L27.0295 29.9133C27.3213 30.2055 27.3205 30.679 27.0285 30.9709C26.7364 31.2629 26.2629 31.263 25.9709 30.9709L19.7072 24.7073C19.3167 24.3168 19.3168 23.6837 19.7072 23.2932L25.9709 17.0286Z" fill="#1D1D1D"/>
</g>
</g>
<defs>
<filter id="filter0_dd_0_1162" x="0" y="0" width="56" height="56" filterUnits="userSpaceOnUse" color-interpolation-filters="sRGB">
<feFlood flood-opacity="0" result="BackgroundImageFix"/>
<feColorMatrix in="SourceAlpha" type="matrix" values="0 0 0 0 0 0 0 0 0 0 0 0 0 0 0 0 0 0 127 0" result="hardAlpha"/>
<feOffset dy="4"/>
<feGaussianBlur stdDeviation="4"/>
<feColorMatrix type="matrix" values="0 0 0 0 0 0 0 0 0 0 0 0 0 0 0 0 0 0 0.08 0"/>
<feBlend mode="normal" in2="BackgroundImageFix" result="effect1_dropShadow_0_1162"/>
<feColorMatrix in="SourceAlpha" type="matrix" values="0 0 0 0 0 0 0 0 0 0 0 0 0 0 0 0 0 0 127 0" result="hardAlpha"/>
<feOffset dy="2"/>
<feGaussianBlur stdDeviation="2"/>
<feColorMatrix type="matrix" values="0 0 0 0 0 0 0 0 0 0 0 0 0 0 0 0 0 0 0.08 0"/>
<feBlend mode="normal" in2="effect1_dropShadow_0_1162" result="effect2_dropShadow_0_1162"/>
<feBlend mode="normal" in="SourceGraphic" in2="effect2_dropShadow_0_1162" result="shape"/>
</filter>
</defs>
</svg>
